<svg width="784" height="465" viewBox="0 0 784 465" fill="none" xmlns="http://www.w3.org/2000/svg">
<g clip-path="url(#clip0_3965_3707)">
<path d="M421.5 335C419.9 331 415.333 308.5 414.5 302.5L388 316C388 316.833 387.6 321.3 386 332.5C401 345 423.5 340 421.5 335Z" fill="white"/>
<path d="M414.5 302.5L415.49 302.362L415.297 300.972L414.046 301.609L414.5 302.5ZM421.5 335L420.572 335.371L421.5 335ZM386 332.5L385.01 332.359L384.931 332.911L385.36 333.268L386 332.5ZM388 316L387.546 315.109L387 315.387V316H388ZM413.51 302.638C413.931 305.675 415.288 312.831 416.734 319.706C417.458 323.149 418.207 326.534 418.876 329.312C419.538 332.062 420.14 334.292 420.572 335.371L422.428 334.629C422.06 333.708 421.491 331.626 420.821 328.844C420.158 326.091 419.413 322.726 418.691 319.294C417.245 312.419 415.902 305.325 415.49 302.362L413.51 302.638ZM420.572 335.371C420.663 335.599 420.659 335.857 420.371 336.232C420.054 336.646 419.439 337.118 418.478 337.573C416.573 338.475 413.62 339.161 410.082 339.313C403.014 339.618 393.903 337.784 386.64 331.732L385.36 333.268C393.097 339.716 402.736 341.632 410.168 341.312C413.88 341.152 417.115 340.431 419.334 339.38C420.436 338.859 421.368 338.218 421.958 337.449C422.576 336.643 422.837 335.651 422.428 334.629L420.572 335.371ZM386.99 332.641C388.586 321.469 389 316.921 389 316H387C387 316.746 386.614 321.131 385.01 332.359L386.99 332.641ZM388.454 316.891L414.954 303.391L414.046 301.609L387.546 315.109L388.454 316.891Z" fill="#0C1534"/>
<path d="M344.501 256.5C345.301 293.7 381.001 314.5 381.001 314.5C381.001 314.5 385.501 317.5 394.501 318.5C414.001 309.5 469.501 244.5 432.001 203.5C394.501 162.5 343.501 210 344.501 256.5Z" fill="white"/>
<path d="M381.001 314.5L381.555 313.668C381.539 313.657 381.522 313.646 381.504 313.636L381.001 314.5ZM344.501 256.5L345.501 256.479L344.501 256.5ZM432.001 203.5L432.739 202.825L432.001 203.5ZM394.501 318.5L394.391 319.494C394.572 319.514 394.755 319.484 394.92 319.408L394.501 318.5ZM381.001 314.5C381.504 313.636 381.504 313.636 381.504 313.636C381.504 313.636 381.504 313.636 381.504 313.636C381.503 313.635 381.502 313.635 381.5 313.634C381.497 313.632 381.491 313.628 381.484 313.624C381.468 313.615 381.444 313.601 381.412 313.581C381.348 313.543 381.252 313.485 381.125 313.406C380.871 313.249 380.495 313.013 380.014 312.697C379.052 312.067 377.673 311.121 376.012 309.87C372.69 307.367 368.25 303.645 363.788 298.774C354.857 289.026 345.893 274.749 345.501 256.479L343.501 256.522C343.908 275.451 353.195 290.174 362.313 300.126C366.876 305.105 371.412 308.908 374.808 311.467C376.507 312.747 377.923 313.718 378.917 314.37C379.414 314.696 379.805 314.942 380.075 315.108C380.209 315.191 380.313 315.254 380.384 315.297C380.42 315.318 380.447 315.335 380.466 315.346C380.476 315.351 380.483 315.356 380.488 315.359C380.491 315.36 380.493 315.361 380.494 315.362C380.495 315.363 380.496 315.363 380.496 315.363C380.497 315.364 380.497 315.364 381.001 314.5ZM345.501 256.479C345.008 233.566 357.345 210.373 374.401 197.997C382.914 191.819 392.55 188.374 402.31 188.944C412.052 189.512 422.037 194.088 431.263 204.175L432.739 202.825C423.214 192.412 412.762 187.55 402.426 186.947C392.107 186.345 382.025 189.993 373.226 196.378C355.656 209.127 342.994 232.934 343.501 256.522L345.501 256.479ZM431.263 204.175C449.583 224.204 445.295 250.171 433.737 272.541C427.971 283.701 420.432 293.879 413.124 301.823C405.793 309.792 398.776 315.425 394.082 317.592L394.92 319.408C399.976 317.074 407.208 311.208 414.596 303.177C422.007 295.121 429.655 284.799 435.514 273.459C447.207 250.828 451.919 223.796 432.739 202.825L431.263 204.175ZM394.611 317.506C390.203 317.016 386.913 316.039 384.738 315.193C383.651 314.77 382.842 314.38 382.311 314.1C382.046 313.96 381.85 313.848 381.724 313.772C381.661 313.735 381.616 313.706 381.588 313.689C381.574 313.68 381.564 313.673 381.559 313.67C381.556 313.668 381.554 313.667 381.554 313.667C381.553 313.667 381.554 313.667 381.554 313.667C381.554 313.667 381.554 313.667 381.554 313.667C381.555 313.667 381.555 313.668 381.555 313.668C381.555 313.668 381.555 313.668 381.001 314.5C380.446 315.332 380.446 315.332 380.447 315.333C380.447 315.333 380.447 315.333 380.448 315.333C380.448 315.333 380.449 315.334 380.449 315.334C380.451 315.335 380.453 315.336 380.454 315.338C380.458 315.34 380.463 315.343 380.469 315.347C380.482 315.355 380.498 315.366 380.519 315.379C380.562 315.406 380.621 315.443 380.699 315.489C380.854 315.582 381.081 315.712 381.378 315.869C381.972 316.183 382.851 316.605 384.013 317.057C386.339 317.961 389.799 318.984 394.391 319.494L394.611 317.506Z" fill="#0C1534"/>
<path d="M382.5 292C386.333 293.333 395.6 294.5 402 288.5" stroke="#0C1534" stroke-width="2" stroke-linecap="round" stroke-linejoin="round"/>
<mask id="path-6-inside-1_3965_3707" fill="white">
<rect x="341" y="251.459" width="34.5519" height="14.8912" rx="1" transform="rotate(-5.74586 341 251.459)"/>
</mask>
<rect x="341" y="251.459" width="34.5519" height="14.8912" rx="1" transform="rotate(-5.74586 341 251.459)" fill="white" stroke="#0C1534" stroke-width="4" mask="url(#path-6-inside-1_3965_3707)"/>
<path d="M344.5 266.5C358.5 238.9 404.667 225.667 426 222.5C432.4 234.5 431.333 266.167 430 280.5C441.5 266.833 458.617 236.24 452 216C443.5 190 429 186 398.5 186C331 189 335 250.5 344.5 266.5Z" fill="url(#paint0_linear_3965_3707)"/>
<path d="M426 222.5L426.882 222.029C426.683 221.656 426.271 221.449 425.853 221.511L426 222.5ZM344.5 266.5L343.64 267.011C343.826 267.324 344.168 267.512 344.533 267.499C344.898 267.487 345.227 267.278 345.392 266.952L344.5 266.5ZM398.5 186V185C398.485 185 398.47 185 398.455 185.001L398.5 186ZM452 216L452.95 215.689L452 216ZM430 280.5L429.004 280.407C428.964 280.843 429.211 281.254 429.614 281.423C430.017 281.591 430.484 281.478 430.765 281.144L430 280.5ZM425.853 221.511C415.111 223.105 398.145 227.228 382.091 234.425C366.069 241.608 350.766 251.936 343.608 266.048L345.392 266.952C352.234 253.464 367.014 243.376 382.909 236.25C398.771 229.139 415.555 225.061 426.147 223.489L425.853 221.511ZM345.36 265.989C343.088 262.163 341.083 255.482 340.434 247.513C339.787 239.563 340.498 230.426 343.568 221.707C346.635 212.997 352.053 204.708 360.833 198.406C369.614 192.103 381.823 187.742 398.544 186.999L398.455 185.001C381.427 185.758 368.823 190.209 359.667 196.781C350.509 203.355 344.865 212.003 341.682 221.043C338.502 230.074 337.775 239.499 338.441 247.675C339.104 255.83 341.162 262.837 343.64 267.011L345.36 265.989ZM398.5 187C413.756 187 424.786 188.011 433.053 192.144C441.234 196.235 446.85 203.466 451.05 216.311L452.95 215.689C448.65 202.534 442.766 194.765 433.947 190.356C425.214 185.989 413.744 185 398.5 185V187ZM451.05 216.311C454.244 226.082 451.734 238.509 446.869 250.335C442.02 262.122 434.921 273.098 429.235 279.856L430.765 281.144C436.579 274.235 443.788 263.082 448.719 251.095C453.633 239.148 456.373 226.158 452.95 215.689L451.05 216.311ZM430.996 280.593C431.665 273.393 432.268 261.85 431.899 250.592C431.715 244.963 431.288 239.387 430.5 234.452C429.715 229.534 428.56 225.175 426.882 222.029L425.117 222.971C426.64 225.825 427.752 229.925 428.525 234.767C429.295 239.592 429.718 245.078 429.9 250.658C430.265 261.816 429.668 273.274 429.004 280.407L430.996 280.593Z" fill="#0C1534"/>
<path d="M374 267L368.5 276.5C368.5 277 369.6 278.2 374 279" stroke="#0C1534" stroke-width="2" stroke-linecap="round" stroke-linejoin="round"/>
<path d="M480.5 367C462.469 325.39 438 328.5 420 328.5C411.2 348.5 393.667 338.5 386 333C384.833 332.333 377.9 331.9 359.5 335.5C336.5 340 336.806 412.606 323.5 408C310.5 403.5 292 389.5 277 382L298.5 426C309.5 433.833 331.5 442.4 333.5 442C335.5 441.6 348.333 435.333 351.5 429L347.5 467H480.5V461C488.378 460.853 493 460 495.5 455C498.333 440.167 500 412 480.5 367Z" fill="white"/>
<path d="M420 328.5V327.5C419.603 327.5 419.244 327.734 419.085 328.097L420 328.5ZM480.5 367L481.418 366.602L480.5 367ZM495.5 455L496.394 455.447C496.435 455.365 496.465 455.278 496.482 455.188L495.5 455ZM420 439L419.024 438.783C418.936 439.176 419.093 439.583 419.422 439.816L420 439ZM425.5 425L425.667 424.014C425.278 423.948 424.887 424.117 424.668 424.445L425.5 425ZM447.97 370.257C447.836 369.722 447.293 369.396 446.757 369.53C446.222 369.664 445.896 370.207 446.03 370.743L447.97 370.257ZM480.5 467V468C481.052 468 481.5 467.552 481.5 467H480.5ZM347.5 467L346.505 466.895C346.476 467.177 346.567 467.458 346.757 467.669C346.946 467.88 347.217 468 347.5 468V467ZM298.5 426L297.602 426.439C297.675 426.589 297.784 426.718 297.92 426.815L298.5 426ZM277 382L277.447 381.106C277.064 380.914 276.601 380.988 276.296 381.29C275.992 381.592 275.913 382.054 276.102 382.439L277 382ZM323.5 408L323.827 407.055H323.827L323.5 408ZM359.5 335.5L359.308 334.519L359.5 335.5ZM386 333L386.583 332.187C386.555 332.167 386.526 332.149 386.496 332.132L386 333ZM359.466 403.26C359.609 402.727 359.293 402.178 358.76 402.034C358.227 401.891 357.678 402.207 357.534 402.74L359.466 403.26ZM420 329.5C429.096 329.5 439.463 328.742 449.854 333.069C460.175 337.368 470.64 346.761 479.582 367.398L481.418 366.602C472.329 345.629 461.544 335.772 450.623 331.223C439.771 326.703 428.904 327.5 420 327.5V329.5ZM479.582 367.398C499.005 412.219 497.312 440.182 494.518 454.812L496.482 455.188C499.354 440.151 500.995 411.781 481.418 366.602L479.582 367.398ZM420.976 439.217C422.166 433.861 423.271 430.817 424.175 428.948C425.087 427.065 425.75 426.428 426.332 425.555L424.668 424.445C424.25 425.072 423.363 426.035 422.375 428.077C421.379 430.133 420.234 433.339 419.024 438.783L420.976 439.217ZM425.333 425.986C431.235 426.983 438.771 428.601 445.861 429.982C452.893 431.351 459.537 432.5 463.5 432.5V430.5C459.769 430.5 453.33 429.399 446.243 428.018C439.215 426.649 431.598 425.016 425.667 424.014L425.333 425.986ZM463.5 432.5C464.196 432.5 464.848 432.329 465.39 431.924C465.93 431.522 466.27 430.957 466.471 430.333C466.856 429.134 466.784 427.533 466.478 425.738C465.859 422.102 464.153 417.019 462.001 411.155C457.669 399.351 451.453 384.189 447.97 370.257L446.03 370.743C449.547 384.811 455.831 400.149 460.124 411.845C462.284 417.731 463.923 422.648 464.506 426.074C464.802 427.811 464.796 429.006 464.567 429.721C464.459 430.055 464.322 430.226 464.195 430.321C464.07 430.414 463.866 430.5 463.5 430.5V432.5ZM494.606 454.553C493.477 456.809 491.906 458.101 489.687 458.876C487.4 459.674 484.419 459.927 480.481 460L480.519 462C484.459 461.926 487.728 461.678 490.347 460.764C493.033 459.826 495.023 458.191 496.394 455.447L494.606 454.553ZM480.481 460C471.834 460.161 463.922 459.689 454.664 456.708C445.392 453.723 434.712 448.201 420.578 438.184L419.422 439.816C433.652 449.901 444.518 455.542 454.051 458.612C463.6 461.687 471.756 462.163 480.519 462L480.481 460ZM479.5 461V467H481.5V461H479.5ZM480.5 466H347.5V468H480.5V466ZM348.495 467.105L352.495 429.105L350.505 428.895L346.505 466.895L348.495 467.105ZM350.606 428.553C349.896 429.972 348.607 431.451 346.971 432.897C345.345 434.335 343.429 435.692 341.533 436.877C339.638 438.061 337.779 439.062 336.275 439.791C334.727 440.54 333.66 440.948 333.304 441.019L333.696 442.981C334.34 442.852 335.627 442.326 337.147 441.591C338.711 440.833 340.633 439.797 342.592 438.573C344.55 437.35 346.562 435.928 348.295 434.396C350.018 432.874 351.521 431.195 352.394 429.447L350.606 428.553ZM333.304 441.019C333.367 441.007 333.318 441.026 333.052 440.984C332.824 440.949 332.515 440.882 332.124 440.781C331.345 440.579 330.306 440.256 329.061 439.825C326.574 438.966 323.316 437.697 319.771 436.169C312.665 433.107 304.493 429.04 299.08 425.186L297.92 426.815C303.507 430.794 311.835 434.927 318.979 438.006C322.559 439.549 325.864 440.836 328.408 441.715C329.678 442.154 330.772 442.496 331.622 442.717C332.046 442.827 332.425 442.911 332.744 442.96C333.025 443.004 333.383 443.043 333.696 442.981L333.304 441.019ZM299.398 425.561L277.898 381.561L276.102 382.439L297.602 426.439L299.398 425.561ZM276.553 382.894C284.002 386.619 292.321 391.959 300.476 396.977C308.584 401.966 316.552 406.653 323.173 408.945L323.827 407.055C317.448 404.847 309.666 400.284 301.524 395.273C293.429 390.292 284.998 384.881 277.447 381.106L276.553 382.894ZM323.173 408.945C324.214 409.305 325.235 409.297 326.2 408.929C327.144 408.569 327.965 407.894 328.688 407.036C330.121 405.338 331.338 402.718 332.447 399.581C334.67 393.29 336.617 384.423 338.836 375.403C341.067 366.331 343.582 357.064 346.95 349.795C350.346 342.466 354.455 337.506 359.692 336.481L359.308 334.519C353.045 335.744 348.567 341.547 345.136 348.954C341.677 356.419 339.124 365.86 336.894 374.926C334.651 384.044 332.741 392.747 330.561 398.914C329.468 402.007 328.347 404.339 327.159 405.747C326.573 406.443 326.014 406.86 325.488 407.06C324.985 407.251 324.449 407.27 323.827 407.055L323.173 408.945ZM359.692 336.481C368.865 334.687 375.153 333.903 379.274 333.648C381.336 333.521 382.84 333.527 383.884 333.601C384.406 333.638 384.799 333.691 385.082 333.748C385.222 333.777 385.327 333.805 385.402 333.829C385.48 333.855 385.508 333.871 385.504 333.868L386.496 332.132C386.213 331.97 385.854 331.864 385.48 331.788C385.089 331.709 384.605 331.647 384.025 331.606C382.866 331.523 381.268 331.521 379.151 331.652C374.914 331.914 368.535 332.713 359.308 334.519L359.692 336.481ZM385.417 333.812C389.272 336.578 395.753 340.59 402.469 341.307C405.857 341.668 409.34 341.195 412.565 339.273C415.787 337.352 418.654 334.043 420.915 328.903L419.085 328.097C416.946 332.957 414.322 335.897 411.541 337.555C408.764 339.211 405.735 339.644 402.681 339.318C396.514 338.66 390.394 334.922 386.583 332.187L385.417 333.812ZM352.466 429.26L359.466 403.26L357.534 402.74L350.534 428.74L352.466 429.26Z" fill="#0C1534"/>
<path d="M270.521 359.708L308.479 447.792C308.795 448.525 309.517 449 310.316 449H341.5C342.605 449 343.5 449.895 343.5 451V465.5C343.5 466.605 342.605 467.5 341.5 467.5H169.382C168.55 467.5 167.805 466.985 167.511 466.208L161 449L127.052 361.221C126.546 359.911 127.513 358.5 128.918 358.5H268.684C269.483 358.5 270.205 358.975 270.521 359.708Z" fill="white" stroke="#0C1534" stroke-width="2" stroke-linecap="round" stroke-linejoin="round"/>
<path d="M457.865 258.725C457.009 264.412 454.577 269.269 451.387 272.533C448.195 275.798 444.31 277.416 440.475 276.839C436.641 276.262 433.404 273.572 431.315 269.512C429.226 265.454 428.332 260.096 429.188 254.409C430.043 248.723 432.475 243.866 435.666 240.602C438.857 237.337 442.743 235.719 446.577 236.296C450.411 236.873 453.648 239.563 455.738 243.623C457.826 247.681 458.72 253.039 457.865 258.725Z" fill="white" stroke="#0C1534" stroke-width="2"/>
<path d="M442.5 277C441.667 283.5 434.9 296.6 414.5 297" stroke="#0C1534" stroke-width="2" stroke-linecap="round" stroke-linejoin="round"/>
<path d="M376.5 190C418.5 189.2 435.667 221.333 439 237C439 237.167 440.3 236.4 445.5 236C447.1 200.8 417 185.5 399.5 186C399.333 185.833 394.5 186.4 376.5 190Z" fill="white" stroke="#0C1534" stroke-width="2" stroke-linejoin="round"/>
<mask id="path-16-inside-2_3965_3707" fill="white">
<rect x="387.91" y="245.479" width="34.5519" height="16.0306" rx="1" transform="rotate(-5.74586 387.91 245.479)"/>
</mask>
<rect x="387.91" y="245.479" width="34.5519" height="16.0306" rx="1" transform="rotate(-5.74586 387.91 245.479)" fill="white" stroke="#0C1534" stroke-width="4" mask="url(#path-16-inside-2_3965_3707)"/>
<path d="M389.044 252.357L375.457 253.643" stroke="#0C1534" stroke-width="2" stroke-linejoin="round"/>
<path d="M431.499 246.5L421.457 247.643" stroke="#0C1534" stroke-width="2" stroke-linejoin="round"/>
<circle cx="361.5" cy="251.5" r="3.5" fill="#0C1534"/>
<circle cx="407.5" cy="245.5" r="3.5" fill="#0C1534"/>
<rect x="0.476222" y="1.33335" width="17.7568" height="30.5667" rx="2" transform="matrix(0.903252 0.42911 -0.42703 0.904237 415.77 409.997)" fill="white" stroke="#0C1534" stroke-width="2"/>
<path d="M414.641 412.313C410.921 408.209 404.598 397.426 409.061 387.128C402.365 384.33 399.575 386.009 394.553 400.56L400.691 403.918" stroke="#0C1534" stroke-width="2" stroke-linecap="round" stroke-linejoin="round"/>
<path d="M400.955 404.589L385.207 396.906C382.915 395.788 380.154 396.742 379.042 399.037V399.037C377.904 401.383 378.931 404.21 381.309 405.278L384.509 406.716" stroke="#0C1534" stroke-width="2" stroke-linecap="round"/>
<path d="M384.508 406.716L380.271 404.873C378.324 404.026 376.059 404.864 375.133 406.775V406.775C374.156 408.79 375.038 411.217 377.08 412.135L379.692 413.309" stroke="#0C1534" stroke-width="2" stroke-linecap="round"/>
<path d="M381.718 413.992L378.024 412.548C376.066 411.783 373.851 412.651 372.933 414.543V414.543C371.939 416.595 372.837 419.066 374.916 420.001L377.461 421.144" stroke="#0C1534" stroke-width="2" stroke-linecap="round"/>
<path d="M378.372 421.827L376.27 420.873C374.666 420.145 372.774 420.754 371.895 422.28V422.28C370.882 424.04 371.611 426.294 373.464 427.127L376.346 428.422L387.574 433.506C388.502 433.926 389.484 434.215 390.492 434.365L404.039 436.378" stroke="#0C1534" stroke-width="2" stroke-linecap="round"/>
<path d="M198.186 410.993C197.875 409.217 197.941 407.67 198.384 406.352C198.84 405.017 199.644 403.976 200.794 403.229C201.945 402.482 203.397 402.094 205.15 402.065C206.903 402.036 208.483 402.375 209.888 403.08C211.293 403.785 212.456 404.794 213.376 406.107C214.309 407.403 214.93 408.93 215.239 410.69C215.552 412.481 215.473 414.045 215 415.38C214.541 416.698 213.738 417.739 212.59 418.503C211.439 419.25 209.987 419.638 208.234 419.667C206.481 419.695 204.902 419.357 203.496 418.652C202.105 417.93 200.949 416.913 200.029 415.6C199.109 414.288 198.495 412.752 198.186 410.993ZM202.192 410.927C202.501 412.687 203.111 414.061 204.024 415.049C204.95 416.022 206.167 416.495 207.674 416.471C209.149 416.447 210.185 415.936 210.782 414.939C211.377 413.925 211.52 412.539 211.212 410.78C210.901 409.004 210.276 407.639 209.336 406.683C208.41 405.71 207.201 405.236 205.71 405.261C204.203 405.286 203.158 405.796 202.577 406.793C202.01 407.774 201.881 409.152 202.192 410.927Z" fill="#0C1534"/>
<path d="M221.211 419.187L218.221 402.118L222.055 402.055L223.357 409.488L223.406 409.487L229.207 401.938L233.753 401.864L226.594 410.941L226.347 409.391L237.285 418.924L232.591 419.001L223.729 411.328L223.679 411.328L225.045 419.125L221.211 419.187Z" fill="#0C1534"/>
<path fill-rule="evenodd" clip-rule="evenodd" d="M205.2 409.917L211.919 402.267L216.518 402.191L205.929 414.505L198.305 408.146L202.805 408.072L205.2 409.917Z" fill="url(#paint1_linear_3965_3707)"/>
<path fill-rule="evenodd" clip-rule="evenodd" d="M212.612 401.876L205.171 409.965L206.626 405.99L210.756 400.99L212.612 401.876Z" fill="white"/>
<path d="M480 128H598C599.657 128 601 129.343 601 131V219C601 220.657 599.657 222 598 222H503.788C502.366 222 501.011 222.606 500.062 223.666L488.205 236.918C487.567 237.631 486.388 237.127 486.463 236.172L487.156 227.394C487.386 224.486 485.088 222 482.172 222H480C478.343 222 477 220.657 477 219V131C477 129.343 478.343 128 480 128Z" fill="white" stroke="#0C1534" stroke-width="2" stroke-linejoin="round"/>
<path d="M503 177.5H543.5" stroke="url(#paint2_linear_3965_3707)" stroke-width="2" stroke-linecap="round" stroke-linejoin="round"/>
<path d="M503 192H559.5" stroke="url(#paint3_linear_3965_3707)" stroke-width="2" stroke-linecap="round" stroke-linejoin="round"/>
<path d="M503 162H583" stroke="url(#paint4_linear_3965_3707)" stroke-width="2" stroke-linecap="round" stroke-linejoin="round"/>
<path d="M312 183H233C231.343 183 230 184.343 230 186V243.948C230 245.605 231.343 246.948 233 246.948H296.265C297.683 246.948 299.035 247.55 299.983 248.604L306.581 255.942C307.221 256.652 308.397 256.147 308.322 255.194L308.051 251.784C307.844 249.177 309.904 246.948 312.519 246.948C313.889 246.948 315 245.837 315 244.466V186C315 184.343 313.657 183 312 183Z" fill="white" stroke="#0C1534" stroke-width="2" stroke-linejoin="round"/>
<circle cx="246" cy="217" r="5" fill="url(#paint5_linear_3965_3707)"/>
<circle cx="246" cy="217" r="5" stroke="#0C1534"/>
<circle cx="268" cy="217" r="5" fill="url(#paint6_linear_3965_3707)"/>
<circle cx="268" cy="217" r="5" stroke="#0C1534"/>
<circle cx="290" cy="217" r="5" fill="url(#paint7_linear_3965_3707)"/>
<circle cx="290" cy="217" r="5" stroke="#0C1534"/>
<path d="M573.991 380.102L569.313 384.76C568.528 385.542 568.528 386.813 569.313 387.594L574.418 392.678C575.192 393.449 576.441 393.456 577.224 392.693L581.903 388.138C582.378 392.114 581.102 396.133 578.326 399.08C575.328 402.056 571.953 401.255 569.409 400.621L569.4 400.619L569.391 400.617L569.001 400.527C568.365 400.381 567.682 400.544 567.186 401.022C563.834 404.247 549.371 418.708 546.197 421.992C545.707 422.499 545.559 423.182 545.675 423.797C545.684 423.841 545.693 423.888 545.701 423.935C545.725 424.061 545.75 424.194 545.775 424.317L545.776 424.325L545.778 424.332C546.344 426.939 547.03 430.313 544.093 433.241C541.559 435.698 538.173 437 534.639 437C534.106 437 533.568 436.961 533.036 436.892L537.715 432.233C538.5 431.451 538.5 430.181 537.715 429.399L532.61 424.316C531.836 423.545 530.587 423.538 529.804 424.3L525.111 428.869C524.591 424.903 525.913 420.877 528.698 417.917C531.775 414.927 535.032 415.676 537.625 416.304L537.645 416.309L537.665 416.313C537.791 416.338 537.908 416.363 538.019 416.388C538.646 416.531 539.34 416.385 539.851 415.893C543.217 412.653 557.659 398.212 560.831 394.931C561.321 394.424 561.469 393.741 561.353 393.126C561.344 393.082 561.335 393.036 561.327 392.989C561.303 392.863 561.278 392.729 561.253 392.606L561.252 392.599L561.25 392.591C560.685 389.988 560 386.618 562.925 383.692C565.946 380.927 569.972 379.608 573.991 380.102Z" fill="white" stroke="#0C1534" stroke-width="2"/>
<path d="M383.108 102.016L383.108 102.016C397.323 101.516 409 112.858 409 126.925C409 128.54 408.846 130.116 408.55 131.654L408.55 131.654L408.549 131.663L408.549 131.663L408.549 131.663L408.549 131.663L408.549 131.663L408.548 131.664L408.547 131.671L408.54 131.706C408.534 131.738 408.524 131.787 408.511 131.853C408.484 131.983 408.442 132.179 408.384 132.43L408.384 132.43L408.382 132.438C407.997 134.166 407.433 135.816 406.702 137.375L406.694 137.392L406.687 137.41C404.13 143.447 398.2 153.618 384.802 164.709C384.327 165.1 383.648 165.093 383.193 164.713L383.19 164.71C369.791 153.605 363.86 143.434 361.316 137.423L361.31 137.409L361.304 137.395C360.583 135.828 360.005 134.162 359.621 132.45L359.618 132.438L359.615 132.426C359.552 132.176 359.513 131.99 359.489 131.87C359.478 131.81 359.47 131.767 359.466 131.741L359.461 131.715L359.461 131.714L359.461 131.714L359.461 131.714L359.461 131.713L359.461 131.713L359.461 131.712L359.461 131.711L359.458 131.691L359.454 131.669C359.016 129.371 358.875 126.975 359.119 124.504L359.119 124.502C360.313 112.144 370.657 102.452 383.108 102.016ZM370.367 127.231C370.367 134.743 376.47 140.825 383.995 140.825C391.52 140.825 397.623 134.743 397.623 127.231C397.623 119.72 391.52 113.637 383.995 113.637C376.47 113.637 370.367 119.72 370.367 127.231Z" fill="white" stroke="#0C1534" stroke-width="2"/>
<path d="M195.75 297.188C195.75 301.944 194.4 306.369 192.095 310.111C191.371 311.286 191.454 312.86 192.467 313.908L205.935 327.825C206.311 328.213 206.311 328.828 205.935 329.216L203.416 331.819C203.023 332.226 202.372 332.226 201.979 331.819L188.679 318.076C187.614 316.975 185.947 316.89 184.735 317.678C181.143 320.013 176.913 321.375 172.375 321.375C159.518 321.375 149 310.554 149 297.188C149 283.821 159.518 273 172.375 273C185.232 273 195.75 283.821 195.75 297.188ZM154.5 297.188C154.5 307.324 162.487 315.625 172.375 315.625C182.263 315.625 190.25 307.324 190.25 297.188C190.25 287.051 182.263 278.75 172.375 278.75C162.487 278.75 154.5 287.051 154.5 297.188Z" fill="white" stroke="#0C1534" stroke-width="2"/>
<path d="M281.304 132.696V131.544C281.304 129.88 281.624 128.296 282.264 126.792C282.904 125.288 284.072 123.592 285.768 121.704C287.112 120.168 288.056 118.856 288.6 117.768C289.144 116.648 289.416 115.48 289.416 114.264C289.416 112.76 288.872 111.576 287.784 110.712C286.696 109.848 285.208 109.416 283.32 109.416C282.072 109.416 280.888 109.576 279.768 109.896C278.648 110.216 277.576 110.648 276.552 111.192V108.312C277.576 107.832 278.68 107.464 279.864 107.208C281.048 106.92 282.248 106.776 283.464 106.776C285.256 106.776 286.824 107.08 288.168 107.688C289.512 108.264 290.552 109.096 291.288 110.184C292.056 111.272 292.44 112.584 292.44 114.12C292.44 115.144 292.28 116.12 291.96 117.048C291.672 117.976 291.192 118.936 290.52 119.928C289.848 120.888 288.968 121.96 287.88 123.144C286.312 124.872 285.192 126.376 284.52 127.656C283.88 128.904 283.496 130.216 283.368 131.592L283.224 132.696H281.304ZM280.2 141V136.872H284.28V141H280.2Z" fill="#0C1534"/>
<path d="M619.92 354.08V353.12C619.92 351.733 620.187 350.413 620.72 349.16C621.253 347.907 622.227 346.493 623.64 344.92C624.76 343.64 625.547 342.547 626 341.64C626.453 340.707 626.68 339.733 626.68 338.72C626.68 337.467 626.227 336.48 625.32 335.76C624.413 335.04 623.173 334.68 621.6 334.68C620.56 334.68 619.573 334.813 618.64 335.08C617.707 335.347 616.813 335.707 615.96 336.16V333.76C616.813 333.36 617.733 333.053 618.72 332.84C619.707 332.6 620.707 332.48 621.72 332.48C623.213 332.48 624.52 332.733 625.64 333.24C626.76 333.72 627.627 334.413 628.24 335.32C628.88 336.227 629.2 337.32 629.2 338.6C629.2 339.453 629.067 340.267 628.8 341.04C628.56 341.813 628.16 342.613 627.6 343.44C627.04 344.24 626.307 345.133 625.4 346.12C624.093 347.56 623.16 348.813 622.6 349.88C622.067 350.92 621.747 352.013 621.64 353.16L621.52 354.08H619.92ZM619 361V357.56H622.4V361H619Z" fill="#0C1534"/>
<path d="M292.304 319.696V318.544C292.304 316.88 292.624 315.296 293.264 313.792C293.904 312.288 295.072 310.592 296.768 308.704C298.112 307.168 299.056 305.856 299.6 304.768C300.144 303.648 300.416 302.48 300.416 301.264C300.416 299.76 299.872 298.576 298.784 297.712C297.696 296.848 296.208 296.416 294.32 296.416C293.072 296.416 291.888 296.576 290.768 296.896C289.648 297.216 288.576 297.648 287.552 298.192V295.312C288.576 294.832 289.68 294.464 290.864 294.208C292.048 293.92 293.248 293.776 294.464 293.776C296.256 293.776 297.824 294.08 299.168 294.688C300.512 295.264 301.552 296.096 302.288 297.184C303.056 298.272 303.44 299.584 303.44 301.12C303.44 302.144 303.28 303.12 302.96 304.048C302.672 304.976 302.192 305.936 301.52 306.928C300.848 307.888 299.968 308.96 298.88 310.144C297.312 311.872 296.192 313.376 295.52 314.656C294.88 315.904 294.496 317.216 294.368 318.592L294.224 319.696H292.304ZM291.2 328V323.872H295.28V328H291.2Z" fill="#0C1534"/>
<path d="M517.304 320.696V319.544C517.304 317.88 517.624 316.296 518.264 314.792C518.904 313.288 520.072 311.592 521.768 309.704C523.112 308.168 524.056 306.856 524.6 305.768C525.144 304.648 525.416 303.48 525.416 302.264C525.416 300.76 524.872 299.576 523.784 298.712C522.696 297.848 521.208 297.416 519.32 297.416C518.072 297.416 516.888 297.576 515.768 297.896C514.648 298.216 513.576 298.648 512.552 299.192V296.312C513.576 295.832 514.68 295.464 515.864 295.208C517.048 294.92 518.248 294.776 519.464 294.776C521.256 294.776 522.824 295.08 524.168 295.688C525.512 296.264 526.552 297.096 527.288 298.184C528.056 299.272 528.44 300.584 528.44 302.12C528.44 303.144 528.28 304.12 527.96 305.048C527.672 305.976 527.192 306.936 526.52 307.928C525.848 308.888 524.968 309.96 523.88 311.144C522.312 312.872 521.192 314.376 520.52 315.656C519.88 316.904 519.496 318.216 519.368 319.592L519.224 320.696H517.304ZM516.2 329V324.872H520.28V329H516.2Z" fill="#0C1534"/>
<g clip-path="url(#clip1_3965_3707)">
<path d="M620.47 280.016L620.471 280.016C621.124 280.587 621.18 281.564 620.596 282.206C620.596 282.206 620.596 282.207 620.596 282.207L619.923 282.947L619.923 282.947C619.536 283.372 619.118 283.635 618.794 283.743C618.594 283.811 618.496 283.804 618.462 283.797C618.17 283.54 617.906 283.309 617.713 283.14L617.478 282.934L617.414 282.878L617.398 282.863L617.393 282.859L617.392 282.858L617.392 282.858L617.392 282.858L616.733 283.61L617.392 282.858L615.733 281.405V283.61V306.569C615.733 307.445 615.023 308.154 614.148 308.154H604.33C603.522 308.154 602.887 307.518 602.901 306.584L602.901 306.577V306.57V290.278V289.278H601.901H590.084H589.084V290.278V306.57C589.084 307.446 588.374 308.155 587.499 308.155H578.234C577.358 308.155 576.649 307.446 576.649 306.57V283.282V281.044L574.982 282.537L573.205 284.128L573.205 284.128C572.679 284.6 571.693 284.601 571.027 283.907L570.431 283.287L570.431 283.286C569.831 282.662 569.861 281.691 570.5 281.105L594.267 259.319L594.267 259.319C594.943 258.699 596.092 258.685 596.784 259.29L620.47 280.016ZM618.449 283.794C618.449 283.794 618.45 283.794 618.452 283.795C618.45 283.794 618.449 283.794 618.449 283.794Z" fill="white" stroke="#0C1534" stroke-width="2"/>
</g>
<path d="M417 296C417 296.912 416.406 297.888 415.127 298.688C413.862 299.478 412.052 300 410 300C407.948 300 406.138 299.478 404.873 298.688C403.594 297.888 403 296.912 403 296C403 295.088 403.594 294.112 404.873 293.312C406.138 292.522 407.948 292 410 292C412.052 292 413.862 292.522 415.127 293.312C416.406 294.112 417 295.088 417 296Z" fill="white" stroke="#0C1534" stroke-width="2"/>
</g>
<defs>
<linearGradient id="paint0_linear_3965_3707" x1="289.381" y1="243.043" x2="383.151" y2="345.109" gradientUnits="userSpaceOnUse">
<stop stop-color="#E43C3C"/>
</linearGradient>
<linearGradient id="paint1_linear_3965_3707" x1="226.172" y1="409.362" x2="216.603" y2="425.069" gradientUnits="userSpaceOnUse">
<stop stop-color="#E43C3C"/>
</linearGradient>
<linearGradient id="paint2_linear_3965_3707" x1="485.336" y1="178.104" x2="485.391" y2="180.094" gradientUnits="userSpaceOnUse">
<stop stop-color="#E43C3C"/>
</linearGradient>
<linearGradient id="paint3_linear_3965_3707" x1="478.358" y1="192.604" x2="478.397" y2="194.595" gradientUnits="userSpaceOnUse">
<stop stop-color="#E43C3C"/>
</linearGradient>
<linearGradient id="paint4_linear_3965_3707" x1="468.109" y1="162.604" x2="468.136" y2="164.595" gradientUnits="userSpaceOnUse">
<stop stop-color="#E43C3C"/>
</linearGradient>
<linearGradient id="paint5_linear_3965_3707" x1="236.639" y1="218.036" x2="246.542" y2="226.952" gradientUnits="userSpaceOnUse">
<stop stop-color="#E43C3C"/>
</linearGradient>
<linearGradient id="paint6_linear_3965_3707" x1="258.639" y1="218.036" x2="268.542" y2="226.952" gradientUnits="userSpaceOnUse">
<stop stop-color="#E43C3C"/>
</linearGradient>
<linearGradient id="paint7_linear_3965_3707" x1="280.639" y1="218.036" x2="290.542" y2="226.952" gradientUnits="userSpaceOnUse">
<stop stop-color="#E43C3C"/>
</linearGradient>
<clipPath id="clip0_3965_3707">
<rect width="807" height="465" fill="white"/>
</clipPath>
<clipPath id="clip1_3965_3707">
<rect x="569" y="257" width="53" height="53" rx="2" fill="white"/>
</clipPath>
</defs>
</svg>
