<svg width="169" height="40" viewBox="0 0 169 40" fill="none" xmlns="http://www.w3.org/2000/svg">
<path d="M9.072 32.28C7.48533 32.28 6.02 32.084 4.676 31.692C3.35067 31.2813 2.212 30.7213 1.26 30.012L2.38 27.184C3.01467 27.632 3.67733 28.0147 4.368 28.332C5.05867 28.6307 5.796 28.864 6.58 29.032C7.364 29.1813 8.19467 29.256 9.072 29.256C10.5467 29.256 11.6107 29.0133 12.264 28.528C12.9173 28.0427 13.244 27.408 13.244 26.624C13.244 25.9333 13.02 25.4107 12.572 25.056C12.124 24.6827 11.3213 24.3747 10.164 24.132L7 23.488C5.18933 23.1147 3.836 22.4893 2.94 21.612C2.044 20.7347 1.596 19.5587 1.596 18.084C1.596 16.852 1.92267 15.7787 2.576 14.864C3.22933 13.9493 4.144 13.24 5.32 12.736C6.496 12.232 7.868 11.98 9.436 11.98C10.836 11.98 12.1333 12.1853 13.328 12.596C14.5227 12.988 15.5213 13.5573 16.324 14.304L15.204 16.992C14.4013 16.32 13.524 15.8253 12.572 15.508C11.62 15.172 10.556 15.004 9.38 15.004C8.05467 15.004 7.01867 15.2653 6.272 15.788C5.544 16.292 5.18 16.992 5.18 17.888C5.18 18.5787 5.404 19.1293 5.852 19.54C6.31867 19.9507 7.10267 20.268 8.204 20.492L11.34 21.108C13.2067 21.4813 14.588 22.0973 15.484 22.956C16.38 23.796 16.828 24.9347 16.828 26.372C16.828 27.548 16.5107 28.584 15.876 29.48C15.2413 30.3573 14.3453 31.048 13.188 31.552C12.0307 32.0373 10.6587 32.28 9.072 32.28ZM26.7829 32.28C24.4122 32.28 22.5549 31.6267 21.2109 30.32C19.8669 29.0133 19.1949 27.2213 19.1949 24.944C19.1949 23.4693 19.4842 22.1813 20.0629 21.08C20.6415 19.9787 21.4442 19.12 22.4709 18.504C23.5162 17.888 24.7295 17.58 26.1109 17.58C27.4735 17.58 28.6122 17.8693 29.5269 18.448C30.4415 19.0267 31.1322 19.8387 31.5989 20.884C32.0842 21.9293 32.3269 23.152 32.3269 24.552V25.476H22.0229V23.628H29.8349L29.3589 24.02C29.3589 22.7133 29.0789 21.7147 28.5189 21.024C27.9775 20.3333 27.1842 19.988 26.1389 19.988C24.9815 19.988 24.0855 20.3987 23.4509 21.22C22.8349 22.0413 22.5269 23.1893 22.5269 24.664V25.028C22.5269 26.5587 22.9002 27.7067 23.6469 28.472C24.4122 29.2187 25.4855 29.592 26.8669 29.592C27.6695 29.592 28.4162 29.4893 29.1069 29.284C29.8162 29.06 30.4882 28.7053 31.1229 28.22L32.1589 30.572C31.4869 31.1133 30.6842 31.5333 29.7509 31.832C28.8175 32.1307 27.8282 32.28 26.7829 32.28ZM35.2627 32V21.472C35.2627 20.8747 35.2441 20.268 35.2067 19.652C35.1881 19.036 35.1414 18.4387 35.0667 17.86H38.4547L38.8467 21.724H38.2867C38.4734 20.7907 38.7814 20.016 39.2107 19.4C39.6587 18.784 40.2001 18.3267 40.8347 18.028C41.4694 17.7293 42.1601 17.58 42.9067 17.58C43.2427 17.58 43.5134 17.5987 43.7187 17.636C43.9241 17.6547 44.1294 17.7013 44.3347 17.776L44.3067 20.856C43.9521 20.7067 43.6441 20.6133 43.3827 20.576C43.1401 20.5387 42.8321 20.52 42.4587 20.52C41.6561 20.52 40.9747 20.688 40.4147 21.024C39.8734 21.36 39.4627 21.8267 39.1827 22.424C38.9214 23.0213 38.7907 23.7027 38.7907 24.468V32H35.2627ZM51.2746 32L45.1706 17.86H48.8946L53.3186 28.92H52.4506L56.9866 17.86H60.4866L54.3546 32H51.2746ZM62.361 32V17.86H65.861V32H62.361ZM62.165 15.2V11.784H66.057V15.2H62.165ZM76.1578 32.28C74.7018 32.28 73.4231 31.9813 72.3218 31.384C71.2391 30.7867 70.3991 29.9373 69.8018 28.836C69.2045 27.716 68.9058 26.3907 68.9058 24.86C68.9058 23.3293 69.2045 22.0227 69.8018 20.94C70.4178 19.8573 71.2671 19.0267 72.3498 18.448C73.4325 17.8693 74.7018 17.58 76.1578 17.58C77.0911 17.58 77.9965 17.7293 78.8738 18.028C79.7698 18.308 80.4978 18.7187 81.0578 19.26L79.9938 21.696C79.4898 21.2293 78.9205 20.884 78.2858 20.66C77.6698 20.4173 77.0631 20.296 76.4658 20.296C75.2151 20.296 74.2351 20.688 73.5258 21.472C72.8351 22.256 72.4898 23.3947 72.4898 24.888C72.4898 26.3813 72.8351 27.5293 73.5258 28.332C74.2351 29.1347 75.2151 29.536 76.4658 29.536C77.0445 29.536 77.6418 29.424 78.2578 29.2C78.8925 28.976 79.4711 28.6307 79.9938 28.164L81.0578 30.572C80.4791 31.1133 79.7418 31.5333 78.8458 31.832C77.9685 32.1307 77.0725 32.28 76.1578 32.28ZM90.3298 32.28C87.9591 32.28 86.1018 31.6267 84.7578 30.32C83.4138 29.0133 82.7418 27.2213 82.7418 24.944C82.7418 23.4693 83.0311 22.1813 83.6098 21.08C84.1884 19.9787 84.9911 19.12 86.0178 18.504C87.0631 17.888 88.2764 17.58 89.6578 17.58C91.0204 17.58 92.1591 17.8693 93.0738 18.448C93.9884 19.0267 94.6791 19.8387 95.1458 20.884C95.6311 21.9293 95.8738 23.152 95.8738 24.552V25.476H85.5698V23.628H93.3818L92.9058 24.02C92.9058 22.7133 92.6258 21.7147 92.0658 21.024C91.5244 20.3333 90.7311 19.988 89.6858 19.988C88.5284 19.988 87.6324 20.3987 86.9978 21.22C86.3818 22.0413 86.0738 23.1893 86.0738 24.664V25.028C86.0738 26.5587 86.4471 27.7067 87.1938 28.472C87.9591 29.2187 89.0324 29.592 90.4138 29.592C91.2164 29.592 91.9631 29.4893 92.6538 29.284C93.3631 29.06 94.0351 28.7053 94.6698 28.22L95.7058 30.572C95.0338 31.1133 94.2311 31.5333 93.2978 31.832C92.3644 32.1307 91.3751 32.28 90.3298 32.28Z" fill="#0C1534"/>
<path d="M107.347 20.704C107.347 18.3573 107.784 16.32 108.659 14.592C109.555 12.8427 110.835 11.488 112.499 10.528C114.163 9.568 116.136 9.088 118.419 9.088C120.702 9.088 122.675 9.568 124.339 10.528C126.003 11.488 127.283 12.8427 128.179 14.592C129.096 16.32 129.555 18.3467 129.555 20.672C129.555 23.04 129.096 25.0987 128.179 26.848C127.283 28.576 126.003 29.9307 124.339 30.912C122.675 31.872 120.702 32.352 118.419 32.352C116.136 32.352 114.163 31.872 112.499 30.912C110.856 29.9307 109.587 28.5653 108.691 26.816C107.795 25.0667 107.347 23.0293 107.347 20.704ZM112.563 20.704C112.563 23.0293 113.043 24.8533 114.003 26.176C114.984 27.4773 116.456 28.128 118.419 28.128C120.339 28.128 121.8 27.4773 122.803 26.176C123.806 24.8533 124.307 23.0293 124.307 20.704C124.307 18.3573 123.806 16.544 122.803 15.264C121.822 13.9627 120.36 13.312 118.419 13.312C116.456 13.312 114.984 13.9627 114.003 15.264C113.043 16.544 112.563 18.3573 112.563 20.704ZM135.376 32V9.44H140.368V19.264H140.432L149.68 9.44H155.6L144.24 21.248L144.272 19.2L156.304 32H150.192L140.432 21.696H140.368V32H135.376Z" fill="#F2994A"/>
<path fill-rule="evenodd" clip-rule="evenodd" d="M117.549 19.4375L128.012 9.5H134L117.452 25.5L109 16.9544H114.859L117.549 19.4375Z" fill="url(#paint0_linear_3988_545)"/>
<path fill-rule="evenodd" clip-rule="evenodd" d="M129 9L117.5 19.5L120.293 14.2929L126.793 7.79291L129 9Z" fill="#EFF5FF"/>
<defs>
<linearGradient id="paint0_linear_3988_545" x1="144.904" y1="19.1581" x2="129.855" y2="40.3261" gradientUnits="userSpaceOnUse">
<stop stop-color="#E43C3C"/>
</linearGradient>
</defs>
</svg>
