<svg width="435" height="426" viewBox="0 0 435 426" fill="none" xmlns="http://www.w3.org/2000/svg">
<mask id="mask0_3866_2744" style="mask-type:alpha" maskUnits="userSpaceOnUse" x="-863" y="-142" width="1440" height="568">
<rect x="-863" y="-142" width="1440" height="568" fill="white"/>
</mask>
<g mask="url(#mask0_3866_2744)">
<path fill-rule="evenodd" clip-rule="evenodd" d="M50 69.0924C50 32.5906 79.5906 3 116.092 3H314.822C351.324 3 380.915 32.5906 380.915 69.0924V604.908C380.915 641.409 351.324 671 314.822 671H116.092C79.5905 671 50 641.409 50 604.908V69.0924Z" fill="white" stroke="#0C1534" stroke-width="2"/>
<path fill-rule="evenodd" clip-rule="evenodd" d="M70.0547 361.684V184.27V620.09C70.0547 636.147 83.295 649.402 99.3665 649.402H330.004C346.075 649.402 359.316 636.147 359.316 620.09V355.513V52.3673C359.316 36.3105 346.075 23.0555 330.004 23.0555H300.692C297.71 23.0555 295.293 25.473 295.293 28.4551V28.4551C295.549 38.8259 287.274 47.1102 276.78 46.9678H151.819C141.173 47.1102 132.897 38.8259 133.306 28.4551V28.4551C133.306 25.473 130.889 23.0555 127.907 23.0555H125.593H117.879H110.937C110.718 23.0555 107.021 23.0555 99.3665 23.0555C83.295 23.0555 70.0547 36.3105 70.0547 52.3673V188.127" fill="#F7FAFF"/>
<mask id="mask1_3866_2744" style="mask-type:alpha" maskUnits="userSpaceOnUse" x="70" y="23" width="290" height="627">
<path fill-rule="evenodd" clip-rule="evenodd" d="M70.0547 361.684V184.27V620.09C70.0547 636.147 83.295 649.402 99.3665 649.402H330.004C346.075 649.402 359.316 636.147 359.316 620.09V355.513V52.3673C359.316 36.3105 346.075 23.0555 330.004 23.0555H300.692C297.71 23.0555 295.293 25.473 295.293 28.4551V28.4551C295.549 38.8259 287.274 47.1102 276.78 46.9678H151.819C141.173 47.1102 132.897 38.8259 133.306 28.4551V28.4551C133.306 25.473 130.889 23.0555 127.907 23.0555H125.593H117.879H110.937C110.718 23.0555 107.021 23.0555 99.3665 23.0555C83.295 23.0555 70.0547 36.3105 70.0547 52.3673V188.127" fill="white"/>
</mask>
<g mask="url(#mask1_3866_2744)">
<mask id="path-5-inside-1_3866_2744" fill="white">
<path fill-rule="evenodd" clip-rule="evenodd" d="M70.0547 361.684V184.27V620.09C70.0547 636.147 83.295 649.402 99.3665 649.402H330.004C346.075 649.402 359.316 636.147 359.316 620.09V355.513V52.3673C359.316 36.3105 346.075 23.0555 330.004 23.0555H300.692C297.71 23.0555 295.293 25.473 295.293 28.4551V28.4551C295.549 38.8259 287.274 47.1102 276.78 46.9678H151.819C141.173 47.1102 132.897 38.8259 133.306 28.4551V28.4551C133.306 25.473 130.889 23.0555 127.907 23.0555H125.593H117.879H110.937C110.718 23.0555 107.021 23.0555 99.3665 23.0555C83.295 23.0555 70.0547 36.3105 70.0547 52.3673V188.127"/>
</mask>
<path fill-rule="evenodd" clip-rule="evenodd" d="M70.0547 361.684V184.27V620.09C70.0547 636.147 83.295 649.402 99.3665 649.402H330.004C346.075 649.402 359.316 636.147 359.316 620.09V355.513V52.3673C359.316 36.3105 346.075 23.0555 330.004 23.0555H300.692C297.71 23.0555 295.293 25.473 295.293 28.4551V28.4551C295.549 38.8259 287.274 47.1102 276.78 46.9678H151.819C141.173 47.1102 132.897 38.8259 133.306 28.4551V28.4551C133.306 25.473 130.889 23.0555 127.907 23.0555H125.593H117.879H110.937C110.718 23.0555 107.021 23.0555 99.3665 23.0555C83.295 23.0555 70.0547 36.3105 70.0547 52.3673V188.127" fill="#F7FAFF"/>
<path d="M276.78 46.9678L276.807 44.968L276.793 44.9678H276.78V46.9678ZM151.819 46.9678V44.9678H151.806L151.792 44.968L151.819 46.9678ZM110.937 23.0555L110.937 21.0555L110.937 23.0555ZM99.3665 23.0555V21.0555V23.0555ZM72.0547 361.684V184.27H68.0547V361.684H72.0547ZM68.0547 184.27V620.09H72.0547V184.27H68.0547ZM68.0547 620.09C68.0547 637.251 82.1898 651.402 99.3665 651.402V647.402C84.4002 647.402 72.0547 635.043 72.0547 620.09H68.0547ZM99.3665 651.402H330.004V647.402H99.3665V651.402ZM330.004 651.402C347.181 651.402 361.316 637.251 361.316 620.09H357.316C357.316 635.043 344.97 647.402 330.004 647.402V651.402ZM361.316 620.09V355.513H357.316V620.09H361.316ZM361.316 355.513V52.3673H357.316V355.513H361.316ZM361.316 52.3673C361.316 35.2066 347.181 21.0555 330.004 21.0555V25.0555C344.97 25.0555 357.316 37.4144 357.316 52.3673H361.316ZM330.004 21.0555H300.692V25.0555H330.004V21.0555ZM293.293 28.5045C293.521 37.7203 286.187 45.0953 276.807 44.968L276.753 48.9676C288.36 49.1251 297.577 39.9314 297.292 28.4057L293.293 28.5045ZM276.78 44.9678H151.819V48.9678H276.78V44.9678ZM151.792 44.968C142.242 45.0957 134.943 37.7101 135.305 28.5339L131.308 28.3762C130.852 39.9416 140.103 49.1247 151.846 48.9676L151.792 44.968ZM127.907 21.0555H125.593V25.0555H127.907V21.0555ZM125.593 21.0555H117.879V25.0555H125.593V21.0555ZM117.879 21.0555H110.937V25.0555H117.879V21.0555ZM110.937 21.0555C110.717 21.0555 107.022 21.0555 99.3665 21.0555V25.0555C107.017 25.0555 110.721 25.0555 110.937 25.0555L110.937 21.0555ZM99.3665 21.0555C82.1898 21.0555 68.0547 35.2066 68.0547 52.3673H72.0547C72.0547 37.4144 84.4002 25.0555 99.3665 25.0555V21.0555ZM68.0547 52.3673V188.127H72.0547V52.3673H68.0547ZM135.306 28.4551C135.306 24.3684 131.994 21.0555 127.907 21.0555V25.0555C129.784 25.0555 131.306 26.5776 131.306 28.4551H135.306ZM300.692 21.0555C296.605 21.0555 293.293 24.3684 293.293 28.4551H297.293C297.293 26.5776 298.815 25.0555 300.692 25.0555V21.0555Z" fill="#0C1534" mask="url(#path-5-inside-1_3866_2744)"/>
<rect x="96" y="71.0001" width="24" height="2" fill="#0C1534"/>
<rect x="96" y="78.0001" width="19" height="2" fill="#0C1534"/>
<rect x="96" y="85.0001" width="13" height="2" fill="#0C1534"/>
<path d="M208.433 284.198L208.432 284.198C207.326 285.303 205.867 285.862 204.421 285.862C202.964 285.862 201.517 285.303 200.409 284.199L200.408 284.198L187.197 270.987L187.196 270.987C184.98 268.769 184.979 265.179 187.197 262.962L208.433 284.198ZM208.433 284.198L238.809 253.822C241.027 251.605 241.026 248.015 238.81 245.796L238.809 245.795C236.592 243.581 233.003 243.58 230.789 245.795C230.789 245.796 230.789 245.796 230.789 245.796L204.421 272.165M208.433 284.198L204.421 272.165M204.421 272.165L195.221 262.962L195.221 262.962C193.004 260.745 189.414 260.745 187.197 262.962L204.421 272.165ZM156 264.998C156 233.569 181.575 208 213 208C244.434 208 270 233.569 270 264.998C270 296.429 244.432 322 213 322C181.573 322 156 296.427 156 264.998Z" fill="url(#paint0_linear_3866_2744)" stroke="#0C1534" stroke-width="2"/>
<path d="M173.345 360.216C171.873 360.216 170.561 360.024 169.409 359.64C168.273 359.24 167.345 358.704 166.625 358.032L167.345 356.496C168.129 357.168 168.993 357.672 169.937 358.008C170.881 358.328 171.985 358.488 173.249 358.488C174.881 358.488 176.073 358.216 176.825 357.672C177.577 357.128 177.953 356.328 177.953 355.272C177.953 354.232 177.617 353.472 176.945 352.992C176.289 352.496 175.289 352.248 173.945 352.248H169.673V350.616H173.609C174.889 350.616 175.865 350.368 176.537 349.872C177.209 349.36 177.545 348.624 177.545 347.664C177.545 346.704 177.185 345.952 176.465 345.408C175.761 344.864 174.697 344.592 173.273 344.592C172.217 344.592 171.225 344.752 170.297 345.072C169.369 345.376 168.521 345.856 167.753 346.512L167.009 344.976C167.761 344.288 168.697 343.768 169.817 343.416C170.953 343.048 172.145 342.864 173.393 342.864C175.409 342.864 176.929 343.28 177.953 344.112C178.993 344.944 179.513 346.064 179.513 347.472C179.513 348.512 179.193 349.392 178.553 350.112C177.929 350.816 177.073 351.288 175.985 351.528V351.192C177.201 351.336 178.161 351.776 178.865 352.512C179.569 353.232 179.921 354.184 179.921 355.368C179.921 356.36 179.681 357.224 179.201 357.96C178.721 358.68 177.993 359.24 177.017 359.64C176.041 360.024 174.817 360.216 173.345 360.216ZM183.745 360V347.952H189.553C190.945 347.952 191.985 348.224 192.673 348.768C193.377 349.296 193.729 350.08 193.729 351.12C193.729 351.888 193.457 352.536 192.913 353.064C192.385 353.576 191.697 353.88 190.849 353.976V353.688C191.841 353.72 192.633 354.008 193.225 354.552C193.817 355.096 194.113 355.8 194.113 356.664C194.113 357.704 193.729 358.52 192.961 359.112C192.209 359.704 191.137 360 189.745 360H183.745ZM185.593 358.68H189.649C190.497 358.68 191.145 358.504 191.593 358.152C192.057 357.784 192.289 357.264 192.289 356.592C192.289 355.92 192.057 355.408 191.593 355.056C191.145 354.704 190.497 354.528 189.649 354.528H185.593V358.68ZM185.593 353.208H189.433C190.217 353.208 190.825 353.032 191.257 352.68C191.689 352.328 191.905 351.84 191.905 351.216C191.905 350.592 191.689 350.112 191.257 349.776C190.825 349.424 190.217 349.248 189.433 349.248H185.593V353.208ZM202.648 360.216C201.496 360.216 200.488 359.968 199.624 359.472C198.776 358.96 198.12 358.24 197.656 357.312C197.192 356.368 196.96 355.256 196.96 353.976C196.96 352.68 197.192 351.568 197.656 350.64C198.12 349.712 198.776 349 199.624 348.504C200.488 347.992 201.496 347.736 202.648 347.736C203.816 347.736 204.824 347.992 205.672 348.504C206.536 349 207.2 349.712 207.664 350.64C208.144 351.568 208.384 352.68 208.384 353.976C208.384 355.256 208.144 356.368 207.664 357.312C207.2 358.24 206.536 358.96 205.672 359.472C204.824 359.968 203.816 360.216 202.648 360.216ZM202.648 358.632C203.8 358.632 204.712 358.24 205.384 357.456C206.056 356.656 206.392 355.496 206.392 353.976C206.392 352.44 206.048 351.28 205.36 350.496C204.688 349.696 203.784 349.296 202.648 349.296C201.512 349.296 200.608 349.696 199.936 350.496C199.264 351.28 198.928 352.44 198.928 353.976C198.928 355.496 199.264 356.656 199.936 357.456C200.608 358.24 201.512 358.632 202.648 358.632ZM212.033 360V347.952H213.977V352.992H220.601V347.952H222.545V360H220.601V354.552H213.977V360H212.033ZM226.857 360V347.952H228.633V358.2H227.985L235.665 347.952H237.297V360H235.545V349.728H236.193L228.513 360H226.857ZM244.178 360V349.512H239.81V347.952H250.514V349.512H246.122V360H244.178ZM258.413 360.216C256.525 360.216 255.037 359.672 253.949 358.584C252.861 357.48 252.317 355.952 252.317 354C252.317 352.736 252.557 351.64 253.037 350.712C253.517 349.768 254.189 349.04 255.053 348.528C255.917 348 256.909 347.736 258.029 347.736C259.133 347.736 260.061 347.968 260.813 348.432C261.565 348.896 262.141 349.56 262.541 350.424C262.941 351.272 263.141 352.28 263.141 353.448V354.168H253.805V352.944H261.869L261.461 353.256C261.461 351.976 261.173 350.976 260.597 350.256C260.021 349.536 259.165 349.176 258.029 349.176C256.829 349.176 255.893 349.6 255.221 350.448C254.549 351.28 254.213 352.408 254.213 353.832V354.048C254.213 355.552 254.581 356.696 255.317 357.48C256.069 358.248 257.117 358.632 258.461 358.632C259.181 358.632 259.853 358.528 260.477 358.32C261.117 358.096 261.725 357.736 262.301 357.24L262.973 358.608C262.445 359.12 261.773 359.52 260.957 359.808C260.157 360.08 259.309 360.216 258.413 360.216Z" fill="#202224"/>
</g>
<circle cx="307.5" cy="159.5" r="40.5" fill="white" stroke="#0C1534" stroke-width="2" stroke-linecap="square"/>
<circle cx="308.087" cy="156.565" r="13.087" stroke="#0C1534" stroke-width="2"/>
<path d="M294.213 177.322L300.92 168.088" stroke="#0C1534" stroke-width="2" stroke-linecap="round"/>
<circle cx="280.95" cy="35.95" r="26.95" fill="white" stroke="#0C1534" stroke-width="2" stroke-linecap="square"/>
<path d="M281.001 23C276.03 23 272 27.0297 272 32.0004C272 39.7676 279.675 40.8179 280.321 48.7152C280.349 49.0742 280.639 49.3574 281 49.3574C281.361 49.3574 281.651 49.0742 281.679 48.7152C282.324 40.8179 290 39.7676 290 32.0004C290.001 27.0297 285.97 23 281.001 23Z" stroke="#0C1534" stroke-width="2"/>
<circle cx="280.939" cy="32.0606" r="3.29472" stroke="#0C1534" stroke-width="2"/>
<circle cx="198.185" cy="97.185" r="35.185" fill="white" stroke="#0C1534" stroke-width="2" stroke-linecap="square"/>
<circle cx="198.539" cy="89.6425" r="8.59027" stroke="#0C1534" stroke-width="2"/>
<path d="M196.622 97.9762H200.458C207.881 97.9762 213.899 103.994 213.899 111.418C213.899 112.86 212.731 114.028 211.289 114.028H185.79C184.348 114.028 183.18 112.86 183.18 111.418C183.18 103.994 189.198 97.9762 196.622 97.9762Z" stroke="#0C1534" stroke-width="2"/>
<circle cx="88.5" cy="188.5" r="46.5" fill="white" stroke="#0C1534" stroke-width="2" stroke-linecap="square"/>
<circle cx="88.8801" cy="188.072" r="19.5325" stroke="#0C1534" stroke-width="2"/>
<path d="M88.043 178.167V189.909H95.3587" stroke="#0C1534" stroke-width="2" stroke-linecap="round"/>
</g>
<defs>
<linearGradient id="paint0_linear_3866_2744" x1="104.407" y1="277.021" x2="219.29" y2="380.441" gradientUnits="userSpaceOnUse">
<stop stop-color="#E43C3C"/>
</linearGradient>
</defs>
</svg>
