<svg width="435" height="426" viewBox="0 0 435 426" fill="none" xmlns="http://www.w3.org/2000/svg">
<mask id="mask0_3866_2744" style="mask-type:alpha" maskUnits="userSpaceOnUse" x="-863" y="-142" width="1440" height="568">
<rect x="-863" y="-142" width="1440" height="568" fill="white"/>
</mask>
<g mask="url(#mask0_3866_2744)">
<path fill-rule="evenodd" clip-rule="evenodd" d="M50 69.0924C50 32.5906 79.5906 3 116.092 3H314.822C351.324 3 380.915 32.5906 380.915 69.0924V604.908C380.915 641.409 351.324 671 314.822 671H116.092C79.5905 671 50 641.409 50 604.908V69.0924Z" fill="white" stroke="#0C1534" stroke-width="2"/>
<path fill-rule="evenodd" clip-rule="evenodd" d="M70.0547 361.684V184.27V620.09C70.0547 636.147 83.295 649.402 99.3665 649.402H330.004C346.075 649.402 359.316 636.147 359.316 620.09V355.513V52.3673C359.316 36.3105 346.075 23.0555 330.004 23.0555H300.692C297.71 23.0555 295.293 25.473 295.293 28.4551C295.549 38.8259 287.274 47.1102 276.78 46.9678H151.819C141.173 47.1102 132.897 38.8259 133.306 28.4551C133.306 25.473 130.889 23.0555 127.907 23.0555H125.593H117.879H110.937C110.718 23.0555 107.021 23.0555 99.3665 23.0555C83.295 23.0555 70.0547 36.3105 70.0547 52.3673V188.127" fill="#F7FAFF"/>
<mask id="mask1_3866_2744" style="mask-type:alpha" maskUnits="userSpaceOnUse" x="70" y="23" width="290" height="627">
<path fill-rule="evenodd" clip-rule="evenodd" d="M70.0547 361.684V184.27V620.09C70.0547 636.147 83.295 649.402 99.3665 649.402H330.004C346.075 649.402 359.316 636.147 359.316 620.09V355.513V52.3673C359.316 36.3105 346.075 23.0555 330.004 23.0555H300.692C297.71 23.0555 295.293 25.473 295.293 28.4551C295.549 38.8259 287.274 47.1102 276.78 46.9678H151.819C141.173 47.1102 132.897 38.8259 133.306 28.4551C133.306 25.473 130.889 23.0555 127.907 23.0555H125.593H117.879H110.937C110.718 23.0555 107.021 23.0555 99.3665 23.0555C83.295 23.0555 70.0547 36.3105 70.0547 52.3673V188.127" fill="white"/>
</mask>
<g mask="url(#mask1_3866_2744)">
<mask id="path-5-inside-1_3866_2744" fill="white">
<path fill-rule="evenodd" clip-rule="evenodd" d="M70.0547 361.684V184.27V620.09C70.0547 636.147 83.295 649.402 99.3665 649.402H330.004C346.075 649.402 359.316 636.147 359.316 620.09V355.513V52.3673C359.316 36.3105 346.075 23.0555 330.004 23.0555H300.692C297.71 23.0555 295.293 25.473 295.293 28.4551C295.549 38.8259 287.274 47.1102 276.78 46.9678H151.819C141.173 47.1102 132.897 38.8259 133.306 28.4551C133.306 25.473 130.889 23.0555 127.907 23.0555H125.593H117.879H110.937C110.718 23.0555 107.021 23.0555 99.3665 23.0555C83.295 23.0555 70.0547 36.3105 70.0547 52.3673V188.127"/>
</mask>
<path fill-rule="evenodd" clip-rule="evenodd" d="M70.0547 361.684V184.27V620.09C70.0547 636.147 83.295 649.402 99.3665 649.402H330.004C346.075 649.402 359.316 636.147 359.316 620.09V355.513V52.3673C359.316 36.3105 346.075 23.0555 330.004 23.0555H300.692C297.71 23.0555 295.293 25.473 295.293 28.4551C295.549 38.8259 287.274 47.1102 276.78 46.9678H151.819C141.173 47.1102 132.897 38.8259 133.306 28.4551C133.306 25.473 130.889 23.0555 127.907 23.0555H125.593H117.879H110.937C110.718 23.0555 107.021 23.0555 99.3665 23.0555C83.295 23.0555 70.0547 36.3105 70.0547 52.3673V188.127" fill="#F7FAFF"/>
<path d="M276.78 46.9678L276.807 44.968L276.793 44.9678H276.78V46.9678ZM151.819 46.9678V44.9678H151.806L151.792 44.968L151.819 46.9678ZM110.937 23.0555V21.0555V23.0555ZM99.3665 23.0555V21.0555V23.0555ZM72.0547 361.684V184.27H68.0547V361.684H72.0547ZM68.0547 184.27V620.09H72.0547V184.27H68.0547ZM68.0547 620.09C68.0547 637.251 82.1898 651.402 99.3665 651.402V647.402C84.4002 647.402 72.0547 635.043 72.0547 620.09H68.0547ZM99.3665 651.402H330.004V647.402H99.3665V651.402ZM330.004 651.402C347.181 651.402 361.316 637.251 361.316 620.09H357.316C357.316 635.043 344.97 647.402 330.004 647.402V651.402ZM361.316 620.09V355.513H357.316V620.09H361.316ZM361.316 355.513V52.3673H357.316V355.513H361.316ZM361.316 52.3673C361.316 35.2066 347.181 21.0555 330.004 21.0555V25.0555C344.97 25.0555 357.316 37.4144 357.316 52.3673H361.316ZM330.004 21.0555H300.692V25.0555H330.004V21.0555ZM293.293 28.5045C293.521 37.7203 286.187 45.0953 276.807 44.968L276.753 48.9676C288.36 49.1251 297.577 39.9314 297.292 28.4057L293.293 28.5045ZM276.78 44.9678H151.819V48.9678H276.78V44.9678ZM151.792 44.968C142.242 45.0957 134.943 37.7101 135.305 28.5339L131.308 28.3762C130.852 39.9416 140.103 49.1247 151.846 48.9676L151.792 44.968ZM127.907 21.0555H125.593V25.0555H127.907V21.0555ZM125.593 21.0555H117.879V25.0555H125.593V21.0555ZM117.879 21.0555H110.937V25.0555H117.879V21.0555ZM110.937 21.0555C110.717 21.0555 107.022 21.0555 99.3665 21.0555V25.0555C107.017 25.0555 110.721 25.0555 110.937 25.0555V21.0555ZM99.3665 21.0555C82.1898 21.0555 68.0547 35.2066 68.0547 52.3673H72.0547C72.0547 37.4144 84.4002 25.0555 99.3665 25.0555V21.0555ZM68.0547 52.3673V188.127H72.0547V52.3673H68.0547ZM135.306 28.4551C135.306 24.3684 131.994 21.0555 127.907 21.0555V25.0555C129.784 25.0555 131.306 26.5776 131.306 28.4551H135.306ZM300.692 21.0555C296.605 21.0555 293.293 24.3684 293.293 28.4551H297.293C297.293 26.5776 298.815 25.0555 300.692 25.0555V21.0555Z" fill="#0C1534" mask="url(#path-5-inside-1_3866_2744)"/>
<rect x="96" y="71.0001" width="24" height="2" fill="#0C1534"/>
<rect x="96" y="78.0001" width="19" height="2" fill="#0C1534"/>
<rect x="96" y="85.0001" width="13" height="2" fill="#0C1534"/>
<path d="M230.789 245.796L204.421 272.165L195.221 262.962L195.221 262.962C193.004 260.745 189.414 260.745 187.197 262.962C184.979 265.179 184.98 268.768 187.196 270.987L187.197 270.987L200.408 284.198L200.409 284.199C201.517 285.303 202.964 285.862 204.421 285.862C205.867 285.862 207.326 285.303 208.432 284.198L208.433 284.198L238.809 253.822C241.027 251.605 241.026 248.015 238.81 245.796L238.809 245.795C236.592 243.581 233.003 243.58 230.789 245.796ZM156 264.998C156 233.569 181.575 208 213 208C244.434 208 270 233.569 270 264.998C270 296.429 244.432 322 213 322C181.573 322 156 296.427 156 264.998Z" fill="url(#paint0_linear_3866_2744)" stroke="#0C1534" stroke-width="2"/>
<path d="M169.402 360L176.866 343.08H178.594L186.178 360H184.114L182.002 355.176L182.89 355.68H172.546L173.506 355.176L171.442 360H169.402ZM177.706 345.36L173.818 354.48L173.242 354.048H182.17L181.738 354.48L177.754 345.36H177.706ZM188.995 360V350.736C188.995 350.288 188.971 349.832 188.923 349.368C188.891 348.888 188.851 348.416 188.803 347.952H190.675L190.915 350.592H190.627C190.979 349.664 191.539 348.96 192.307 348.48C193.091 347.984 193.995 347.736 195.019 347.736C196.443 347.736 197.515 348.12 198.235 348.888C198.971 349.64 199.339 350.832 199.339 352.464V360H197.395V352.584C197.395 351.448 197.163 350.624 196.699 350.112C196.251 349.584 195.547 349.32 194.587 349.32C193.467 349.32 192.579 349.664 191.923 350.352C191.267 351.04 190.939 351.96 190.939 353.112V360H188.995ZM203.489 360V350.856C203.489 350.376 203.473 349.888 203.441 349.392C203.425 348.896 203.393 348.416 203.345 347.952H205.217L205.457 350.88L205.121 350.904C205.281 350.184 205.561 349.592 205.961 349.128C206.361 348.664 206.833 348.32 207.377 348.096C207.921 347.856 208.489 347.736 209.081 347.736C209.321 347.736 209.529 347.744 209.705 347.76C209.897 347.776 210.073 347.816 210.233 347.88L210.209 349.608C209.969 349.528 209.745 349.48 209.537 349.464C209.345 349.432 209.121 349.416 208.865 349.416C208.161 349.416 207.545 349.584 207.017 349.92C206.505 350.256 206.113 350.688 205.841 351.216C205.585 351.744 205.457 352.304 205.457 352.896V360H203.489ZM216.984 360.216C215.56 360.216 214.48 359.824 213.744 359.04C213.024 358.256 212.664 357.056 212.664 355.44V347.952H214.608V355.392C214.608 356.496 214.832 357.312 215.28 357.84C215.728 358.352 216.424 358.608 217.368 358.608C218.424 358.608 219.272 358.264 219.912 357.576C220.552 356.888 220.872 355.968 220.872 354.816V347.952H222.816V360H220.92V357.288H221.232C220.896 358.216 220.352 358.936 219.6 359.448C218.864 359.96 217.992 360.216 216.984 360.216ZM227.691 360V349.464H225.339V347.952H228.219L227.691 348.456V346.44C227.691 345.08 228.035 344.04 228.723 343.32C229.411 342.6 230.395 342.24 231.675 342.24C231.995 342.24 232.323 342.272 232.659 342.336C233.011 342.384 233.299 342.456 233.523 342.552V344.16C233.331 344.08 233.091 344.016 232.803 343.968C232.531 343.904 232.251 343.872 231.963 343.872C231.467 343.872 231.043 343.976 230.691 344.184C230.339 344.376 230.075 344.672 229.899 345.072C229.723 345.472 229.635 345.984 229.635 346.608V348.36L229.323 347.952H232.995V349.464H229.635V360H227.691ZM240.681 360.216C238.793 360.216 237.305 359.672 236.217 358.584C235.129 357.48 234.585 355.952 234.585 354C234.585 352.736 234.825 351.64 235.305 350.712C235.785 349.768 236.457 349.04 237.321 348.528C238.185 348 239.177 347.736 240.297 347.736C241.401 347.736 242.329 347.968 243.081 348.432C243.833 348.896 244.409 349.56 244.809 350.424C245.209 351.272 245.409 352.28 245.409 353.448V354.168H236.073V352.944H244.137L243.729 353.256C243.729 351.976 243.441 350.976 242.865 350.256C242.289 349.536 241.433 349.176 240.297 349.176C239.097 349.176 238.161 349.6 237.489 350.448C236.817 351.28 236.481 352.408 236.481 353.832V354.048C236.481 355.552 236.849 356.696 237.585 357.48C238.337 358.248 239.385 358.632 240.729 358.632C241.449 358.632 242.121 358.528 242.745 358.32C243.385 358.096 243.993 357.736 244.569 357.24L245.241 358.608C244.713 359.12 244.041 359.52 243.225 359.808C242.425 360.08 241.577 360.216 240.681 360.216ZM248.863 360V350.736C248.863 350.288 248.839 349.832 248.791 349.368C248.759 348.888 248.719 348.416 248.671 347.952H250.543L250.783 350.592H250.495C250.847 349.664 251.407 348.96 252.175 348.48C252.959 347.984 253.863 347.736 254.887 347.736C256.311 347.736 257.383 348.12 258.103 348.888C258.839 349.64 259.207 350.832 259.207 352.464V360H257.263V352.584C257.263 351.448 257.031 350.624 256.567 350.112C256.119 349.584 255.415 349.32 254.455 349.32C253.335 349.32 252.447 349.664 251.791 350.352C251.135 351.04 250.807 351.96 250.807 353.112V360H248.863Z" fill="#202224"/>
</g>
<circle cx="307.5" cy="159.5" r="40.5" fill="white" stroke="#0C1534" stroke-width="2" stroke-linecap="square"/>
<circle cx="308.087" cy="156.565" r="13.087" stroke="#0C1534" stroke-width="2"/>
<path d="M294.213 177.322L300.92 168.088" stroke="#0C1534" stroke-width="2" stroke-linecap="round"/>
<circle cx="280.95" cy="35.95" r="26.95" fill="white" stroke="#0C1534" stroke-width="2" stroke-linecap="square"/>
<path d="M281.001 23C276.03 23 272 27.0297 272 32.0004C272 39.7676 279.675 40.8179 280.321 48.7152C280.349 49.0742 280.639 49.3574 281 49.3574C281.361 49.3574 281.651 49.0742 281.679 48.7152C282.324 40.8179 290 39.7676 290 32.0004C290.001 27.0297 285.97 23 281.001 23Z" stroke="#0C1534" stroke-width="2"/>
<circle cx="280.939" cy="32.0606" r="3.29472" stroke="#0C1534" stroke-width="2"/>
<circle cx="198.185" cy="97.185" r="35.185" fill="white" stroke="#0C1534" stroke-width="2" stroke-linecap="square"/>
<circle cx="198.539" cy="89.6425" r="8.59027" stroke="#0C1534" stroke-width="2"/>
<path d="M183.18 111.418C183.18 103.994 189.198 97.9762 196.622 97.9762H200.458C207.881 97.9762 213.899 103.994 213.899 111.418C213.899 112.86 212.731 114.028 211.289 114.028H185.79C184.348 114.028 183.18 112.86 183.18 111.418Z" stroke="#0C1534" stroke-width="2"/>
<circle cx="88.5" cy="188.5" r="46.5" fill="white" stroke="#0C1534" stroke-width="2" stroke-linecap="square"/>
<circle cx="88.8801" cy="188.072" r="19.5325" stroke="#0C1534" stroke-width="2"/>
<path d="M88.043 178.167V189.909H95.3587" stroke="#0C1534" stroke-width="2" stroke-linecap="round"/>
</g>
<defs>
<linearGradient id="paint0_linear_3866_2744" x1="104.407" y1="277.021" x2="219.29" y2="380.441" gradientUnits="userSpaceOnUse">
<stop stop-color="#E43C3C"/>
</linearGradient>
</defs>
</svg>
