<svg width="34" height="35" viewBox="0 0 34 35" fill="none" xmlns="http://www.w3.org/2000/svg">
<rect width="34" height="35" fill="#A2B6C8"/>
<path fill-rule="evenodd" clip-rule="evenodd" d="M16.6749 9.00234C16.4775 9.00226 16.2947 9.00217 16.1247 9.00244V9C14.3059 9.00203 13.957 9.01423 13.0568 9.0549C12.1053 9.09862 11.5887 9.25722 11.2447 9.39141C10.7893 9.56872 10.464 9.78019 10.1225 10.1218C9.7809 10.4634 9.56905 10.7887 9.39218 11.2442C9.25861 11.5882 9.09962 12.1047 9.05611 13.0563C9.00935 14.0851 9 14.3926 9 16.9989C9 19.6052 9.00935 19.9143 9.05611 20.9431C9.09942 21.8947 9.25861 22.4112 9.39218 22.7548C9.56946 23.2105 9.7809 23.535 10.1225 23.8766C10.464 24.2182 10.7893 24.4297 11.2447 24.6066C11.5889 24.7401 12.1053 24.8991 13.0568 24.9431C14.0855 24.9898 14.3943 25 17.0001 25C19.6057 25 19.9147 24.9898 20.9434 24.9431C21.8949 24.8996 22.4117 24.741 22.7553 24.6068C23.2109 24.4299 23.5352 24.2184 23.8767 23.8768C24.2183 23.5354 24.4301 23.2111 24.607 22.7556C24.7406 22.412 24.8996 21.8955 24.9431 20.9439C24.9898 19.9151 25 19.606 25 17.0013C25 14.3966 24.9898 14.0876 24.9431 13.0587C24.8998 12.1071 24.7406 11.5907 24.607 11.247C24.4297 10.7916 24.2183 10.4662 23.8767 10.1246C23.5354 9.78303 23.2107 9.57157 22.7553 9.39467C22.4113 9.26108 21.8949 9.10207 20.9434 9.05856C19.9145 9.01179 19.6057 9.00244 17.0001 9.00244L16.6749 9.00234ZM20.2529 17.0033C20.2529 15.2065 18.7964 13.75 17 13.75C15.2034 13.75 13.7471 15.2065 13.7471 17.0033C13.7471 18.8 15.2034 20.2566 17 20.2566C18.7964 20.2566 20.2529 18.8 20.2529 17.0033ZM22.2086 10.6235C21.5621 10.6235 21.0376 11.1474 21.0376 11.7942C21.0376 12.4408 21.5621 12.9654 22.2086 12.9654C22.8552 12.9654 23.3797 12.4408 23.3797 11.7942C23.3797 11.1476 22.8552 10.623 22.2086 10.623V10.6235ZM11.9886 17.0037C11.9886 14.2357 14.2325 11.9915 17.0001 11.9915H16.9999C19.7674 11.9915 22.0107 14.2357 22.0107 17.0037C22.0107 19.7716 19.7676 22.0148 17.0001 22.0148C14.2325 22.0148 11.9886 19.7716 11.9886 17.0037Z" fill="#F7FAFF"/>
</svg>
