<svg width="34" height="35" viewBox="0 0 34 35" fill="none" xmlns="http://www.w3.org/2000/svg">
<path fill-rule="evenodd" clip-rule="evenodd" d="M34 0H0V35H34V0ZM8 13C8 11.8954 8.89543 11 10 11H24C25.1046 11 26 11.8954 26 13V22.9091C26 24.0137 25.1046 24.9091 24 24.9091H10C8.89543 24.9091 8 24.0137 8 22.9091V13ZM20.7916 17.908C21.1907 18.1137 21.1907 18.6136 20.7916 18.8193L15.4728 21.5608C15.064 21.7715 14.5455 21.5167 14.5455 21.1051V15.6222C14.5455 15.2106 15.064 14.9558 15.4728 15.1665L20.7916 17.908Z" fill="#A2B6C8"/>
</svg>
